# xmcd CD database file
#
# Track frame offsets:
#	150
#	30709
#	72001
#	108913
#	129987
#	143568
#	163362
#	173254
#	195315
#	213217
#	224588
#	261821
#	296135
#	328671
#	331565
#
# Disc length: 4655 seconds
#
# Revision: 3
# Processed by: cddbd v1.5.2PL0 Copyright (c) Steve Scherf et al.
# Submitted via: CDex 1.51
#
DISCID=d6122d0f
DTITLE=Charlie Parker - Jazz At Massey Hall
DYEAR=1953
DGENRE=Jazz
TTITLE0=Wee (aka Allen's Alley)
TTITLE1=Hot House
TTITLE2=A Night In Tunisia
TTITLE3=Drum Conversation
TTITLE4=I've Got You Under My Skin
TTITLE5=Embraceable You
TTITLE6=Sure Thing
TTITLE7=Cherokee
TTITLE8=Hallelujah
TTITLE9=Lullaby Of Birdland
TTITLE10=Perdido
TTITLE11=Salt Peanuts
TTITLE12=All The Things You Are
TTITLE13=52nd Street Theme
TTITLE14=Bass-ically Speaking
EXTD=YEAR: 1953
EXTT0=
EXTT1=
EXTT2=
EXTT3=
EXTT4=
EXTT5=
EXTT6=
EXTT7=
EXTT8=
EXTT9=
EXTT10=
EXTT11=
EXTT12=
EXTT13=
EXTT14=
PLAYORDER=
